<?xml version="1.0" encoding="utf-8"?>
<!-- Svg Vector Icons : http://www.onlinewebfonts.com/icon -->
<!DOCTYPE svg PUBLIC "-//W3C//DTD SVG 1.1//EN" "http://www.w3.org/Graphics/SVG/1.1/DTD/svg11.dtd">
<svg version="1.1" xmlns="http://www.w3.org/2000/svg" xmlns:xlink="http://www.w3.org/1999/xlink" x="0px" y="0px" viewBox="0 0 1000 1000" enable-background="new 0 0 1000 1000" xml:space="preserve">
<metadata> Svg Vector Icons : http://www.onlinewebfonts.com/icon </metadata>
<g><path d="M285.8,494c11.5,53.1,73.2,109.3,117.8,159.9c44.5,50.7,94.6,126.5,141.5,135c51.5-69.2,45.8-172.2-18.5-245.3C462.4,470.5,361,451.7,285.8,494z M144.2,854.6c-50.3-70-74.6-107.5-73.5-161.8c-34.6,48.8-10.2,103.1,54.5,182.3c71.7,87.9,95.6,80.5,155.2,59.7C251.1,939.2,196.3,927.1,144.2,854.6z M938.2,177.4c-10.1-30.6-32.6-58-54.1-77c-10.9-9.4-21.9-16.5-34.7-19.8c-3.2-0.8-6.5-1.4-10-1.7c-3.5-0.3-7.1-0.4-10.8-0.1c-2.6,0.2-5.4,0.5-8.2,1c0-25,0-40.5,0-40.5c0-14.1-6.8-25.9-16-29.2h-10.7c-9.2,3.4-16,15.2-16,29.2v356.6c-17.1-11.1-38.7-17.7-62.2-17.7c-28.3,0-53.8,9.6-71.9,24.9c-18.1-20.9-37.1-41.3-56.9-61.1c8.3-7.3,13.7-16.6,15.1-26.7c2.2-3.2,3.5-7.4,3.5-12.1c0,0,0-96.7,0-169c5.5-5.8,14-12.7,23.8-12.8c8.6-0.4,18.4,4.7,28.9,17.6c9.7,13.1,20.3,34,12.4,70.5c-0.1,0.1,6.5-3.9,11.4-17.2c1.2-3.2,2.3-7,3.1-11c0.4-2,0.7-4.2,1-6.3c0.3-2.2,0.4-4.4,0.5-6.7c0.3-9.2-1.1-19-4.4-28.2c-6.6-18.5-21.2-35-35.3-46.5c-7.1-5.7-14.3-10-22.6-12c-2.1-0.5-4.2-0.8-6.5-1c-2.3-0.2-4.6-0.2-7.1-0.1c-1.7,0.1-3.5,0.3-5.3,0.6c0-15.1,0-24.5,0-24.5c0-10.1-6.2-18.2-13.9-18.2c-7.7,0-13.9,8.2-13.9,18.2v215.4c-11.1-6.7-25.2-10.7-40.6-10.7c-12,0-23.3,2.5-33,6.8c-165.8-132.2-318.2-157-358-48.8C100.7,342.6,218.8,592.4,409.9,777c191.2,184.7,383,234.2,428.5,110.8c29.7-80.7-10.4-215.2-95.1-350.3c38.5-9,67.5-36.4,71.7-69.7c3.3-5.3,5.4-12.3,5.4-20c0,0,0-160.1,0-279.9c8.4-9.6,21.4-21,36.5-21.2c13.3-0.6,28.2,7.8,44.3,29.1c14.9,21.7,31.1,56.3,19,116.8c-0.1,0.1,10-6.5,17.5-28.4c1.9-5.4,3.5-11.5,4.8-18.3c0.6-3.4,1.1-6.9,1.5-10.5c0.4-3.6,0.7-7.4,0.8-11.2C945.4,208.9,943.3,192.7,938.2,177.4z M784.4,824.5c-38.5,104.3-200.7,62.5-362.1-93.3C260.7,575.4,161.1,364.5,199.6,260.2c32.1-86.9,149.9-72.4,281.7,24.9c-5.9,7.4-9.2,16-9.2,25.2c0,27.1,29.2,49.1,65.1,49.1c9.3,0,18.2-1.5,26.3-4.2c22.3,21.6,43.4,44.3,63.1,67.6c-6.9,11-10.7,23.5-10.7,36.7c0,43.7,42.5,79.4,95.7,81.2C778,650.6,808.7,758.8,784.4,824.5z M767.8,962.2c-46.2,15.6-119.2-4.7-207.3-38.8c-46.3-18.3-93.1-43.3-138.1-75.5c0.6-0.4,1.2-0.8,1.8-1.2c-0.7-0.4-1.4-0.9-2.1-1.3c-7.2-4.4-14-8.8-20.4-13c-33.5-26-65.7-56.2-95.7-90.8C177.1,587.1,109.2,407.6,130,295.9c-25.8,45.8-16.9,115.7,12.5,200c11.6,31.8,26.1,65.6,44.1,100.2c-27.1,39.8-54.8,75.4-83.4,115c0.2,0.1,9.8,33.7,35,71.9c6.4,9.6,11.7,19.7,20.2,30c4.3,5.1,10.9,14.5,15.8,19.7c4.9,5.2,8.3,10.1,13.5,15.7c37.9,41.2,52.2,43.8,82.7,59c0,0.1,0,0.1,0.2,0.1c0,0,0.1,0,0.1,0c0,0,0.1,0,0.2,0c0.1,0,0.3,0,0.4,0c0.7-0.1,1.7-0.3,3-0.5c2.7-0.5-9.2-3.3-4.1-2.7c12.6,1.7,39.3-6.3,55.1-11.5c25.2-8.2,55.3-21.1,80.8-35.3c56.1,43.2,114.2,75.9,169.4,97.7c55,21.7,97.3,31.9,130.1,34.9h38.6c54.8-6,69.1-38.3,75.7-51.2C818,942.8,765.1,966,767.8,962.2z"/></g>
</svg>